<?xml version="1.0" standalone="no"?>
<!DOCTYPE svg PUBLIC "-//W3C//DTD SVG 20010904//EN"
 "http://www.w3.org/TR/2001/REC-SVG-20010904/DTD/svg10.dtd">
<svg version="1.0" xmlns="http://www.w3.org/2000/svg"
 width="512.000000pt" height="512.000000pt" viewBox="0 0 512.000000 512.000000"
 preserveAspectRatio="xMidYMid meet">

<g transform="translate(0.000000,512.000000) scale(0.100000,-0.100000)"
fill="#000000" stroke="none">
<path d="M2450 4764 c-30 -20 -423 -291 -872 -601 l-816 -563 -112 0 c-110 0
-112 0 -141 -29 l-29 -29 0 -289 c0 -258 2 -290 18 -309 27 -34 56 -44 121
-44 l61 0 0 -910 0 -910 -87 0 c-108 0 -146 -18 -162 -77 -14 -50 -14 -556 0
-606 7 -26 21 -44 42 -57 31 -20 69 -20 2055 -20 2224 0 2064 -5 2097 60 22
43 22 597 0 640 -24 46 -62 60 -160 60 l-85 0 0 910 0 910 63 0 c76 0 107 15
129 60 16 31 18 67 18 288 0 348 -2 352 -180 352 l-105 0 -863 596 c-662 457
-872 597 -900 601 -31 4 -46 -1 -92 -33z m772 -681 l679 -468 -198 -6 c-289
-9 -2553 -10 -2552 -1 0 4 223 160 496 347 774 531 867 594 882 594 7 1 319
-209 693 -466z m-1764 -1330 l-3 -148 -277 -3 -278 -2 0 150 0 150 280 0 281
0 -3 -147z m522 -763 l0 -910 -155 0 -155 0 0 903 c0 497 3 907 7 910 3 4 73
7 155 7 l148 0 0 -910z m880 395 l0 -515 -330 0 -330 0 0 515 0 515 330 0 330
0 0 -515z m530 -395 l0 -910 -155 0 -155 0 0 910 0 910 155 0 155 0 0 -910z
m770 760 l0 -150 -277 2 -278 3 -3 148 -3 147 281 0 280 0 0 -150z m-2700
-505 l0 -145 -280 0 -280 0 0 145 0 145 280 0 280 0 0 -145z m2700 0 l0 -145
-280 0 -280 0 0 145 0 145 280 0 280 0 0 -145z m-2700 -510 l0 -145 -280 0
-280 0 0 145 0 145 280 0 280 0 0 -145z m2700 0 l0 -145 -280 0 -280 0 0 145
0 145 280 0 280 0 0 -145z m-1300 -370 l0 -285 -330 0 -330 0 0 285 0 285 330
0 330 0 0 -285z m-1400 -140 l0 -145 -280 0 -280 0 0 145 0 145 280 0 280 0 0
-145z m2700 0 l0 -145 -280 0 -280 0 0 145 0 145 280 0 280 0 0 -145z m260
-523 l0 -159 -337 -6 c-186 -4 -1037 -7 -1890 -7 l-1553 0 0 165 0 165 1890 0
1890 0 0 -158z"/>
<path d="M2314 3966 c-46 -46 -48 -104 -5 -147 l29 -29 192 0 192 0 29 29 c33
33 39 83 15 130 -24 45 -52 51 -242 51 l-176 0 -34 -34z"/>
</g>
</svg>
